<?xml version="1.0" standalone="no"?>
<!DOCTYPE svg PUBLIC "-//W3C//DTD SVG 20010904//EN"
 "http://www.w3.org/TR/2001/REC-SVG-20010904/DTD/svg10.dtd">
<svg version="1.0" xmlns="http://www.w3.org/2000/svg"
 width="1000.000000pt" height="1000.000000pt" viewBox="0 0 1000.000000 1000.000000"
 preserveAspectRatio="xMidYMid meet">
<metadata>
Created by potrace 1.14, written by Peter Selinger 2001-2017
</metadata>
<g transform="translate(0.000000,1000.000000) scale(0.100000,-0.100000)"
fill="#000000" stroke="none">
<path d="M3057 8224 c-1 -1 -31 -4 -67 -8 -36 -3 -83 -11 -105 -16 -22 -6 -47
-12 -55 -14 -9 -2 -51 -18 -95 -35 -266 -102 -481 -325 -579 -599 -26 -72 -29
-86 -47 -192 -5 -32 -9 -1004 -8 -2370 0 -2499 -2 -2381 53 -2539 177 -506
732 -787 1243 -630 99 31 180 74 422 226 119 75 225 141 236 147 11 6 41 26
67 44 26 17 50 32 53 32 4 0 25 13 48 29 23 16 195 125 382 241 187 117 352
221 366 231 25 18 26 18 85 -18 32 -19 83 -51 112 -69 402 -259 1247 -783
1317 -815 264 -124 574 -122 843 6 234 111 428 323 511 560 64 181 61 30 61
2563 0 1287 -4 2334 -9 2367 -56 376 -326 695 -686 808 -202 63 -381 67 -577
11 -122 -34 -180 -64 -440 -227 -576 -360 -758 -474 -818 -512 -205 -132 -360
-225 -372 -225 -13 0 -108 56 -135 80 -7 5 -15 10 -18 10 -3 0 -19 9 -35 20
-17 11 -43 29 -59 40 -16 11 -45 28 -63 39 -29 16 -296 184 -338 211 -12 8
-252 158 -346 217 -113 70 -150 94 -221 140 -46 29 -87 53 -92 53 -5 0 -11 4
-13 8 -4 9 -79 54 -158 93 -74 36 -207 75 -290 84 -63 7 -169 12 -173 9z"/>
</g>
</svg>
