<svg xmlns="http://www.w3.org/2000/svg" viewBox="0 0 500 500"><g id="freepik--Login--inject-57"><path d="M260.41,365.5H132.84a8.13,8.13,0,0,1-8-7.64L113.4,136.31a7.17,7.17,0,0,1,7.24-7.63H248.21a8.12,8.12,0,0,1,8,7.63l11.42,221.55A7.18,7.18,0,0,1,260.41,365.5Z" style="fill:#407BFF"></path><path d="M260.41,365.5H132.84a8.13,8.13,0,0,1-8-7.64L113.4,136.31a7.17,7.17,0,0,1,7.24-7.63H248.21a8.12,8.12,0,0,1,8,7.63l11.42,221.55A7.18,7.18,0,0,1,260.41,365.5Z" style="fill:#fff;opacity:0.8"></path><rect x="221.51" y="121.46" width="14.11" height="1" style="fill:#407BFF"></rect><rect x="211.45" y="121.46" width="5.17" height="1" style="fill:#407BFF"></rect><path d="M265.9,351.44h-122a7.77,7.77,0,0,1-7.68-7.29l-10.92-211.9a6.86,6.86,0,0,1,6.93-7.3h122a7.77,7.77,0,0,1,7.67,7.3l10.92,211.9A6.85,6.85,0,0,1,265.9,351.44Z" style="fill:#407BFF"></path><path d="M265.9,346.57h-122a2.92,2.92,0,0,1-2.81-2.68L130.16,132a2,2,0,0,1,.54-1.55,2,2,0,0,1,1.52-.62h122a2.92,2.92,0,0,1,2.8,2.68L268,344.4a2,2,0,0,1-2.05,2.17ZM132.22,130.08a1.79,1.79,0,0,0-1.34.54,1.84,1.84,0,0,0-.47,1.37l10.92,211.89a2.67,2.67,0,0,0,2.56,2.44h122a1.74,1.74,0,0,0,1.33-.54,1.76,1.76,0,0,0,.47-1.37L256.78,132.52a2.66,2.66,0,0,0-2.55-2.44Z" style="fill:#fff"></path><ellipse cx="196.09" cy="180.61" rx="36" ry="37.9" transform="translate(-70.12 194.99) rotate(-45.74)" style="fill:#fff;opacity:0.30000000000000004"></ellipse><path d="M226,180.61a28.71,28.71,0,0,1-2.87,14.24,28.07,28.07,0,0,1-25.47,15.65,31.75,31.75,0,0,1-27.08-15.65,30.78,30.78,0,0,1-4.34-14.24,28.09,28.09,0,0,1,28.34-29.88A31.81,31.81,0,0,1,226,180.61Z" style="fill:#fff"></path><path d="M223.1,194.85a28.07,28.07,0,0,1-25.47,15.65,31.75,31.75,0,0,1-27.08-15.65,45.16,45.16,0,0,1,25.86-8A49.14,49.14,0,0,1,223.1,194.85Z" style="fill:#407BFF"></path><ellipse cx="195.56" cy="170.39" rx="12.97" ry="13.66" transform="translate(-62.95 191.52) rotate(-45.74)" style="fill:#407BFF"></ellipse><path d="M248.41,269H152.88a3.29,3.29,0,0,1-3.25-3.09l-.72-14a2.9,2.9,0,0,1,2.93-3.08h95.53a3.29,3.29,0,0,1,3.25,3.08l.72,14A2.9,2.9,0,0,1,248.41,269Z" style="fill:#fff"></path><path d="M219.16,241.1h-39.9A3.29,3.29,0,0,1,176,238l-.15-3a2.9,2.9,0,0,1,2.93-3.09h39.89a3.29,3.29,0,0,1,3.25,3.09l.16,3A2.92,2.92,0,0,1,219.16,241.1Z" style="opacity:0.30000000000000004"></path><path d="M234,336.31H174.23a5.61,5.61,0,0,1-5.53-5.26l-.35-6.9a5,5,0,0,1,5-5.26H233.1a5.61,5.61,0,0,1,5.53,5.26l.35,6.9A5,5,0,0,1,234,336.31Z" style="opacity:0.30000000000000004"></path><path d="M250.16,302.86H154.62a3.3,3.3,0,0,1-3.25-3.09l-.72-14a2.91,2.91,0,0,1,2.93-3.09h95.53a3.29,3.29,0,0,1,3.25,3.09l.73,14A2.92,2.92,0,0,1,250.16,302.86Z" style="fill:#fff"></path><path d="M165,258.91a3.22,3.22,0,0,1-3.25,3.42,3.64,3.64,0,0,1-3.59-3.42,3.21,3.21,0,0,1,3.24-3.42A3.65,3.65,0,0,1,165,258.91Z" style="fill:#263238"></path><path d="M175.53,258.91a3.21,3.21,0,0,1-3.24,3.42,3.63,3.63,0,0,1-3.59-3.42,3.21,3.21,0,0,1,3.24-3.42A3.63,3.63,0,0,1,175.53,258.91Z" style="fill:#263238"></path><path d="M186,258.91a3.21,3.21,0,0,1-3.24,3.42,3.65,3.65,0,0,1-3.6-3.42,3.22,3.22,0,0,1,3.25-3.42A3.64,3.64,0,0,1,186,258.91Z" style="fill:#263238"></path><path d="M196.55,258.91a3.22,3.22,0,0,1-3.24,3.42,3.65,3.65,0,0,1-3.6-3.42,3.22,3.22,0,0,1,3.24-3.42A3.65,3.65,0,0,1,196.55,258.91Z" style="fill:#263238"></path><path d="M166.77,292.75a3.21,3.21,0,0,1-3.24,3.42,3.65,3.65,0,0,1-3.6-3.42,3.22,3.22,0,0,1,3.25-3.42A3.64,3.64,0,0,1,166.77,292.75Z" style="fill:#263238"></path><path d="M177.28,292.75a3.22,3.22,0,0,1-3.24,3.42,3.65,3.65,0,0,1-3.6-3.42,3.21,3.21,0,0,1,3.24-3.42A3.65,3.65,0,0,1,177.28,292.75Z" style="fill:#263238"></path><path d="M187.79,292.75a3.22,3.22,0,0,1-3.25,3.42,3.63,3.63,0,0,1-3.59-3.42,3.21,3.21,0,0,1,3.24-3.42A3.65,3.65,0,0,1,187.79,292.75Z" style="fill:#263238"></path><path d="M198.29,292.75a3.21,3.21,0,0,1-3.24,3.42,3.65,3.65,0,0,1-3.6-3.42,3.22,3.22,0,0,1,3.25-3.42A3.63,3.63,0,0,1,198.29,292.75Z" style="fill:#263238"></path><path d="M208.8,292.75a3.21,3.21,0,0,1-3.24,3.42,3.65,3.65,0,0,1-3.6-3.42,3.22,3.22,0,0,1,3.24-3.42A3.65,3.65,0,0,1,208.8,292.75Z" style="fill:#263238"></path><path d="M219.31,292.75a3.22,3.22,0,0,1-3.25,3.42,3.64,3.64,0,0,1-3.59-3.42,3.21,3.21,0,0,1,3.24-3.42A3.65,3.65,0,0,1,219.31,292.75Z" style="fill:#263238"></path></g></svg>